<svg xmlns="http://www.w3.org/2000/svg" xmlns:xlink="http://www.w3.org/1999/xlink" width="777.191" height="659.004" viewBox="0 0 777.191 659.004">
  <defs>
    <linearGradient id="linear-gradient" x1="0.141" y1="1.022" x2="0.929" y2="-0.012" gradientUnits="objectBoundingBox">
      <stop offset="0" stop-color="gray" stop-opacity="0.251"/>
      <stop offset="0.535" stop-color="gray" stop-opacity="0.122"/>
      <stop offset="1" stop-color="gray" stop-opacity="0.102"/>
    </linearGradient>
    <clipPath id="clip-path">
      <path id="Path_40" data-name="Path 40" d="M579.273,120.414A26.413,26.413,0,0,1,553.3,142.942l-112.53.274a26.413,26.413,0,0,1-26.086-22.4l-59.605.145a12.374,12.374,0,0,0-12.344,12.4l1.3,533.828a12.374,12.374,0,0,0,12.4,12.344l284.71-.692a12.374,12.374,0,0,0,12.344-12.4l-1.3-533.828a12.374,12.374,0,0,0-12.4-12.344Z" transform="translate(-342.732 -120.267)" fill="#6c63ff" opacity="0.3"/>
    </clipPath>
    <linearGradient id="linear-gradient-2" x1="0.48" y1="1.023" x2="0.48" y2="0.018" xlink:href="#linear-gradient"/>
  </defs>
  <g id="About_Image" data-name="About Image" transform="translate(-0.004 -49.442)">
    <g id="Group_1" data-name="Group 1" transform="translate(136.449 49.442)" opacity="0.5">
      <path id="Path_37" data-name="Path 37" d="M651.129,95.908l-309.408.752A12.715,12.715,0,0,0,329.034,109.4l1.407,578.7a12.715,12.715,0,0,0,12.749,12.681l309.408-.752a12.715,12.715,0,0,0,12.687-12.743l-1.407-578.7A12.715,12.715,0,0,0,651.129,95.908Z" transform="translate(-329.034 -95.908)" fill="url(#linear-gradient)"/>
    </g>
    <rect id="Rectangle_6" data-name="Rectangle 6" width="325.794" height="588.062" rx="13.635" transform="translate(140.963 58.109) rotate(-0.139)" fill="#fff"/>
    <path id="Path_38" data-name="Path 38" d="M579.273,120.414A26.413,26.413,0,0,1,553.3,142.942l-112.53.274a26.413,26.413,0,0,1-26.086-22.4l-59.605.145a12.374,12.374,0,0,0-12.344,12.4l1.3,533.828a12.374,12.374,0,0,0,12.4,12.344l284.71-.692a12.374,12.374,0,0,0,12.344-12.4l-1.3-533.828a12.374,12.374,0,0,0-12.4-12.344Z" transform="translate(-193.536 -48.158)" fill="#6c63ff" opacity="0.3"/>
    <g id="Group_2" data-name="Group 2" transform="translate(149.196 72.109)" clip-path="url(#clip-path)">
      <path id="Path_39" data-name="Path 39" d="M66.109,105.17,509.184,468.043,515,171.068l-500.4-17.732,79.019,75.778L594.8,267.627,72.789,399.186l472.72,153.443-1.772,58.141-487.789-29,14.77,146.632,214.2-19.112L399.791.32" transform="translate(-150.21 -68.698)" fill="none" stroke="#fff" stroke-miterlimit="10" stroke-width="4"/>
    </g>
    <rect id="Rectangle_7" data-name="Rectangle 7" width="72.6" height="4.538" rx="2" transform="matrix(1, -0.015, 0.015, 1, 264.64, 80.063)" fill="#dbdbdb"/>
    <circle id="Ellipse_7" data-name="Ellipse 7" cx="2.723" cy="2.723" r="2.723" transform="translate(349.962 77.831)" fill="#dbdbdb"/>
    <g id="Group_3" data-name="Group 3" transform="translate(85.793 125.113)" opacity="0.5">
      <rect id="Rectangle_8" data-name="Rectangle 8" width="2.792" height="15.819" transform="translate(6.514)" fill="#47e6b1"/>
      <rect id="Rectangle_9" data-name="Rectangle 9" width="2.792" height="15.819" transform="translate(15.819 6.514) rotate(90)" fill="#47e6b1"/>
    </g>
    <g id="Group_4" data-name="Group 4" transform="translate(108.126 224.293)" opacity="0.5">
      <rect id="Rectangle_10" data-name="Rectangle 10" width="2.792" height="15.819" transform="translate(6.514 0)" fill="#47e6b1"/>
      <rect id="Rectangle_11" data-name="Rectangle 11" width="2.792" height="15.819" transform="translate(15.819 6.514) rotate(90)" fill="#47e6b1"/>
    </g>
    <g id="Group_5" data-name="Group 5" transform="translate(536.181 95.335)" opacity="0.5">
      <rect id="Rectangle_12" data-name="Rectangle 12" width="2.792" height="15.819" transform="translate(6.514)" fill="#47e6b1"/>
      <rect id="Rectangle_13" data-name="Rectangle 13" width="2.792" height="15.819" transform="translate(15.819 6.514) rotate(90)" fill="#47e6b1"/>
    </g>
    <g id="Group_6" data-name="Group 6" transform="translate(761.375 153.571)" opacity="0.5">
      <rect id="Rectangle_14" data-name="Rectangle 14" width="2.792" height="15.819" transform="translate(6.514)" fill="#47e6b1"/>
      <rect id="Rectangle_15" data-name="Rectangle 15" width="2.792" height="15.819" transform="translate(15.819 6.517) rotate(90)" fill="#47e6b1"/>
    </g>
    <path id="Path_41" data-name="Path 41" d="M193.839,275.642a3.419,3.419,0,0,1-1.905-4.133,1.646,1.646,0,0,0,.074-.379h0a1.715,1.715,0,0,0-3.081-1.136h0a1.64,1.64,0,0,0-.19.337,3.419,3.419,0,0,1-4.133,1.905,1.644,1.644,0,0,0-.379-.074h0a1.715,1.715,0,0,0-1.136,3.081h0a1.644,1.644,0,0,0,.337.19,3.419,3.419,0,0,1,1.905,4.133,1.644,1.644,0,0,0-.074.379h0a1.715,1.715,0,0,0,3.081,1.136h0a1.642,1.642,0,0,0,.19-.337,3.419,3.419,0,0,1,4.133-1.905,1.64,1.64,0,0,0,.379.074h0a1.715,1.715,0,0,0,1.136-3.081h0a1.641,1.641,0,0,0-.337-.19Z" transform="translate(-182.403 -58.508)" fill="#4d8af0" opacity="0.5"/>
    <path id="Path_42" data-name="Path 42" d="M949.839,466.642a3.419,3.419,0,0,1-1.905-4.133,1.645,1.645,0,0,0,.074-.379h0a1.715,1.715,0,0,0-3.081-1.136h0a1.642,1.642,0,0,0-.19.337,3.419,3.419,0,0,1-4.133,1.905,1.642,1.642,0,0,0-.379-.074h0a1.715,1.715,0,0,0-1.136,3.081h0a1.642,1.642,0,0,0,.337.19,3.419,3.419,0,0,1,1.905,4.133,1.646,1.646,0,0,0-.074.379h0a1.715,1.715,0,0,0,3.081,1.136h0a1.651,1.651,0,0,0,.19-.337,3.419,3.419,0,0,1,4.133-1.905,1.643,1.643,0,0,0,.379.074h0a1.715,1.715,0,0,0,1.136-3.081h0a1.643,1.643,0,0,0-.337-.19Z" transform="translate(-234.903 -71.772)" fill="#4d8af0" opacity="0.5"/>
    <path id="Path_43" data-name="Path 43" d="M896.839,161.642a3.419,3.419,0,0,1-1.905-4.133,1.646,1.646,0,0,0,.074-.379h0a1.715,1.715,0,0,0-3.081-1.136h0a1.649,1.649,0,0,0-.19.337,3.419,3.419,0,0,1-4.133,1.905,1.643,1.643,0,0,0-.379-.074h0a1.715,1.715,0,0,0-1.136,3.081h0a1.647,1.647,0,0,0,.337.19,3.419,3.419,0,0,1,1.905,4.133,1.643,1.643,0,0,0-.074.379h0a1.715,1.715,0,0,0,3.081,1.136h0a1.643,1.643,0,0,0,.19-.337,3.419,3.419,0,0,1,4.133-1.905,1.642,1.642,0,0,0,.379.074h0a1.715,1.715,0,0,0,1.136-3.081h0a1.644,1.644,0,0,0-.337-.19Z" transform="translate(-231.223 -50.591)" fill="#4d8af0" opacity="0.5"/>
    <path id="Path_44" data-name="Path 44" d="M920.839,335.642a3.419,3.419,0,0,1-1.905-4.133,1.639,1.639,0,0,0,.074-.379h0a1.715,1.715,0,0,0-3.081-1.136h0a1.642,1.642,0,0,0-.19.337,3.419,3.419,0,0,1-4.133,1.905,1.643,1.643,0,0,0-.379-.074h0a1.715,1.715,0,0,0-1.136,3.081h0a1.646,1.646,0,0,0,.337.19,3.419,3.419,0,0,1,1.905,4.133,1.646,1.646,0,0,0-.074.379h0a1.715,1.715,0,0,0,3.081,1.136h0a1.645,1.645,0,0,0,.19-.337,3.419,3.419,0,0,1,4.133-1.905,1.639,1.639,0,0,0,.379.074h0a1.715,1.715,0,0,0,1.136-3.081h0a1.643,1.643,0,0,0-.337-.19Z" transform="translate(-232.889 -62.675)" fill="#4d8af0" opacity="0.5"/>
    <circle id="Ellipse_8" data-name="Ellipse 8" cx="5.583" cy="5.583" r="5.583" transform="translate(61.598 389.001)" fill="#f55f44" opacity="0.5"/>
    <circle id="Ellipse_9" data-name="Ellipse 9" cx="5.583" cy="5.583" r="5.583" transform="translate(538.042 204.752)" fill="#4d8af0" opacity="0.5"/>
    <circle id="Ellipse_10" data-name="Ellipse 10" cx="5.583" cy="5.583" r="5.583" transform="translate(583.64 346.196)" fill="#47e6b1" opacity="0.5"/>
    <circle id="Ellipse_11" data-name="Ellipse 11" cx="5.583" cy="5.583" r="5.583" transform="translate(6.695 52.141)" fill="#f55f44" opacity="0.5"/>
    <rect id="Rectangle_16" data-name="Rectangle 16" width="20.698" height="26.611" transform="translate(453.499 217.438) rotate(-2.221)" fill="#6c63ff"/>
    <path id="Path_45" data-name="Path 45" d="M589.606,375.161s-28.642-13.685-28.183-1.866,28.871,19.594,28.871,19.594Z" transform="translate(-208.723 -65.395)" fill="#ffb9b9"/>
    <path id="Path_46" data-name="Path 46" d="M606.652,481.939s-13.513,33.073-18.505,56.939-12.6,56.71-2.816,80,37.587,91.752,37.873,99.138-2.382,14.888,3.527,14.658S664.8,722.325,666.1,717.836s-10.971-15.849-10.971-15.849l-30.315-94.993,31.63-61.886,22.814,92.325,4.468,115.229s21.93-6.769,25.114-.974c0,0,9.826-13.7,11.074-19.663s-4.64-119.661-4.64-119.661,20.13-129.5,3.88-128.869S639.255,445.166,606.652,481.939Z" transform="translate(-210.055 -72.176)" fill="#2f2e41"/>
    <path id="Path_47" data-name="Path 47" d="M628.217,745.461s-14.99,33.131-16.41,34.665-11.188,16.709-3.8,16.422,24.828-8.36,37.665-20.694,29.763-33.7,28.228-35.124-12.047-5.451-12.047-5.451Z" transform="translate(-211.769 -90.867)" fill="#5821f1"/>
    <path id="Path_48" data-name="Path 48" d="M693.9,765.784s-.9,14.83-3.63,20.854-2.382,14.888,5,14.6,26.477-3.986,26.477-3.986,1.134-8.921-.4-10.341-8.074-17.441-5.291-21.988S693.9,765.784,693.9,765.784Z" transform="translate(-217.563 -92.8)" fill="#5821f1"/>
    <path id="Path_49" data-name="Path 49" d="M704.436,248.8s15.747,24.541,21.885,30.221-11.131,18.186-11.131,18.186l-30.909,4.158s.389-28.126-1.2-31.023S704.436,248.8,704.436,248.8Z" transform="translate(-217.166 -57.084)" fill="#ffb9b9"/>
    <path id="Path_50" data-name="Path 50" d="M674.713,282.8s6.367,11.589,12.277,11.36,36.474-13.251,37.78-17.74,10.124,32.157,10.124,32.157L660.1,440.2,641.86,427.591l8.839-77.278,7.26-41.708Z" transform="translate(-214.309 -58.976)" fill="#5821f1"/>
    <path id="Path_51" data-name="Path 51" d="M724.724,399.933c-2.983,6.241-4.847,12.749-4.588,19.412.011.3.023.591.049.886.708,13.673,5.745,29.486,7.552,40.986,1.311,8.249.938,14.271-3.889,15.686-11.7,3.413,1.706,5.852-43.574,20.923s-53.183,2.062-53.3-.892,6.413-25.4,4.878-26.82-21.472,18.587-27.5,15.861-.687-17.728-.687-17.728,13.57-31.6,13.283-38.983,20.555-42.224,20.555-42.224l14.176-92.28s5.451-12.048,12.78-13.811,13.41,2.439,13.41,2.439L665.612,310.5l-12.94,47.846,2.165,17.67s15.047-31.653,24.93-43.873,30.954-41.147,30.954-41.147,4.919-16.6,1.206-21.559,15.491-5.72,23.679,14.676c4.34,10.81,11.386,26.93,15.8,41.938,3.933,13.3,5.791,25.726,1.895,32.831C747.344,369.732,732.362,384,724.724,399.933Z" transform="translate(-211.506 -58.312)" fill="#2f2e41"/>
    <path id="Path_52" data-name="Path 52" d="M762.053,363.049c-5.956,10.854-20.938,25.12-28.575,41.055-1.995-7.187-4.429-14.623-4.429-14.623s-9.334-49.942,18.276-62.848a18.478,18.478,0,0,1,12.833,3.586C764.091,343.515,765.95,355.944,762.053,363.049Z" transform="translate(-220.259 -62.483)" opacity="0.1"/>
    <path id="Path_53" data-name="Path 53" d="M642.421,362.391l-23.408,6.826-32.5,1.26-3.344,28.24,53.412,3.847S649.922,365.059,642.421,362.391Z" transform="translate(-210.234 -64.972)" fill="#2f2e41"/>
    <path id="Path_54" data-name="Path 54" d="M685.978,464.431s-31.315,5.2-24.167,14.619,34.888-.484,34.888-.484Z" transform="translate(-215.621 -72.058)" fill="#ffb9b9"/>
    <path id="Path_55" data-name="Path 55" d="M725.606,431.7c.708,13.673,5.745,29.486,7.552,40.986-9.976,9.441-19.462,17.769-23.037,17.908-7.386.286-19.262-.733-23.637.917s-6.94-26.362-6.94-26.362,2.611-8.978,14.257-13.868C701.662,447.976,716.731,439,725.606,431.7Z" transform="translate(-216.926 -69.785)" opacity="0.1"/>
    <path id="Path_56" data-name="Path 56" d="M743.623,317.106s25-3.928,23.649,37.55,2.635,67.956-7.419,75.743-42.715,43.083-50.1,43.37-19.262-.733-23.637.917-6.94-26.362-6.94-26.362,2.611-8.978,14.257-13.868,39.085-22.229,38.856-28.138-6.94-26.362-6.94-26.362S716.013,330.013,743.623,317.106Z" transform="translate(-216.901 -61.82)" fill="#2f2e41"/>
    <circle id="Ellipse_12" data-name="Ellipse 12" cx="32.525" cy="32.525" r="32.525" transform="translate(432.7 163.006)" fill="#ffb9b9"/>
    <path id="Path_57" data-name="Path 57" d="M657.519,202.312a6.28,6.28,0,0,1-2.735,1.372,1.951,1.951,0,0,1-2.261-1.567c-.744,1.543-1.584,3.188-3.1,3.98s-3.869.128-4.088-1.571a7.171,7.171,0,0,1-1.651,3.484c-.943.9-2.652,1.126-3.475.116.665,3.636.255,7.375.464,11.066s1.193,7.6,3.981,10.03c4.066,3.539,10.181,2.666,15.53,2a4.714,4.714,0,0,1,2.434.133c2,.853,1.912,3.641,1.939,5.818A16.166,16.166,0,0,0,678.71,252.52a8.1,8.1,0,0,0,6.023-1.47c1.519-1.287,2.294-3.385,4.035-4.352,2.831-1.573,6.264.721,8.334,3.212s4.109,5.555,7.316,6.011c4.24.6,7.47-3.719,9.055-7.7a44.874,44.874,0,0,0-.892-34.868C703.727,194.055,673.481,191,657.519,202.312Z" transform="translate(-214.195 -53.399)" fill="#2f2e41"/>
    <path id="Path_58" data-name="Path 58" d="M618.568,292.191c-4.318,31.158-68.413,96.318-68.413,96.318s-48.458-80.76-44.14-111.918a56.814,56.814,0,1,1,112.553,15.6Z" transform="translate(-204.857 -55.609)" fill="url(#linear-gradient-2)"/>
    <path id="Path_59" data-name="Path 59" d="M615.121,293.55c-4.051,29.226-64.17,90.345-64.17,90.345s-45.454-75.751-41.4-104.977A53.291,53.291,0,1,1,615.121,293.55Z" transform="translate(-205.103 -55.982)" fill="#5821f1"/>
    <ellipse id="Ellipse_13" data-name="Ellipse 13" cx="26.712" cy="26.646" rx="26.712" ry="26.646" transform="translate(327.76 248.82) rotate(-82.109)" fill="#fff"/>
  </g>
</svg>
